<svg xmlns="http://www.w3.org/2000/svg" viewBox="0 0 48 48" fill="none" aria-hidden="true">
  <!-- Papers behind -->
  <rect x="10" y="6" width="18" height="12" rx="0.5" fill="#e5e5e5" stroke="#000" stroke-width="1.2"/>
  <rect x="12" y="4" width="18" height="12" rx="0.5" fill="#f3f3f3" stroke="#000" stroke-width="1.2"/>
  <!-- Front paper with text lines -->
  <rect x="14" y="2" width="18" height="12" rx="0.5" fill="#f5f5f5" stroke="#000" stroke-width="1.2"/>
  <line x1="18" y1="6" x2="28" y2="6" stroke="#000" stroke-width="1.2" stroke-linecap="round"/>
  <line x1="18" y1="9.5" x2="26" y2="9.5" stroke="#000" stroke-width="1.2" stroke-linecap="round"/>
  <!-- Folder tab + body -->
  <path d="M6 18h36v24a3 3 0 0 1-3 3H9a3 3 0 0 1-3-3V18z" fill="#FCD34D" stroke="#000" stroke-width="1.8" stroke-linejoin="round"/>
  <path d="M6 18V16a3 3 0 0 1 3-3h10l4 5H39a3 3 0 0 1 3 3v2" fill="#FBBF24" stroke="#000" stroke-width="1.8" stroke-linejoin="round"/>
  <!-- Right edge depth -->
  <path d="M40 18v27" stroke="#D97706" stroke-width="2" stroke-linecap="round"/>
  <!-- Red label -->
  <rect x="30" y="22" width="10" height="6" rx="0.5" fill="#EF4444" stroke="#000" stroke-width="1.2"/>
</svg>
